<?xml version="1.0" encoding="UTF-8" standalone="no"?>
<!DOCTYPE svg PUBLIC "-//W3C//DTD SVG 1.1//EN"
 "http://www.w3.org/Graphics/SVG/1.1/DTD/svg11.dtd">
<!-- Generated by graphviz version 2.47.1 (20210417.1919)
 -->
<!-- Title: relationship Pages: 1 -->
<svg width="768pt" height="1123pt"
 viewBox="0.00 0.00 768.28 1123.00" xmlns="http://www.w3.org/2000/svg" xmlns:xlink="http://www.w3.org/1999/xlink">
<g id="graph0" class="graph" transform="scale(1 1) rotate(0) translate(4 1119)">
<title>relationship</title>
<polygon fill="white" stroke="transparent" points="-4,4 -4,-1119 764.28,-1119 764.28,4 -4,4"/>
<!-- 贾族 -->
<g id="node1" class="node">
<title>贾族</title>
<polygon fill="white" stroke="transparent" points="54,-36 0,-36 0,0 54,0 54,-36"/>
<text text-anchor="middle" x="27" y="-14.3" font-family="Times,serif" font-size="14.00">贾族</text>
</g>
<!-- 1 -->
<g id="node2" class="node">
<title>1</title>
<polygon fill="white" stroke="transparent" points="164.5,-36 110.5,-36 110.5,0 164.5,0 164.5,-36"/>
<text text-anchor="middle" x="137.5" y="-14.3" font-family="Times,serif" font-size="14.00">1</text>
</g>
<!-- 贾族&#45;&gt;1 -->
<g id="edge1" class="edge">
<title>贾族&#45;&gt;1</title>
<path fill="none" stroke="black" d="M54.26,-18C68.13,-18 85.34,-18 100.43,-18"/>
<polygon fill="black" stroke="black" points="100.48,-21.5 110.48,-18 100.48,-14.5 100.48,-21.5"/>
</g>
<!-- 2 -->
<g id="node3" class="node">
<title>2</title>
<polygon fill="white" stroke="transparent" points="300,-36 246,-36 246,0 300,0 300,-36"/>
<text text-anchor="middle" x="273" y="-14.3" font-family="Times,serif" font-size="14.00">2</text>
</g>
<!-- 1&#45;&gt;2 -->
<g id="edge2" class="edge">
<title>1&#45;&gt;2</title>
<path fill="none" stroke="black" d="M164.56,-18C184.73,-18 212.93,-18 235.38,-18"/>
<polygon fill="black" stroke="black" points="235.55,-21.5 245.55,-18 235.55,-14.5 235.55,-21.5"/>
</g>
<!-- 3 -->
<g id="node4" class="node">
<title>3</title>
<polygon fill="white" stroke="transparent" points="433,-36 379,-36 379,0 433,0 433,-36"/>
<text text-anchor="middle" x="406" y="-14.3" font-family="Times,serif" font-size="14.00">3</text>
</g>
<!-- 2&#45;&gt;3 -->
<g id="edge3" class="edge">
<title>2&#45;&gt;3</title>
<path fill="none" stroke="black" d="M300.19,-18C319.83,-18 346.94,-18 368.67,-18"/>
<polygon fill="black" stroke="black" points="368.85,-21.5 378.85,-18 368.85,-14.5 368.85,-21.5"/>
</g>
<!-- 4 -->
<g id="node5" class="node">
<title>4</title>
<polygon fill="white" stroke="transparent" points="566,-36 512,-36 512,0 566,0 566,-36"/>
<text text-anchor="middle" x="539" y="-14.3" font-family="Times,serif" font-size="14.00">4</text>
</g>
<!-- 3&#45;&gt;4 -->
<g id="edge4" class="edge">
<title>3&#45;&gt;4</title>
<path fill="none" stroke="black" d="M433.19,-18C452.83,-18 479.94,-18 501.67,-18"/>
<polygon fill="black" stroke="black" points="501.85,-21.5 511.85,-18 501.85,-14.5 501.85,-21.5"/>
</g>
<!-- 5 -->
<g id="node6" class="node">
<title>5</title>
<polygon fill="white" stroke="transparent" points="724,-36 670,-36 670,0 724,0 724,-36"/>
<text text-anchor="middle" x="697" y="-14.3" font-family="Times,serif" font-size="14.00">5</text>
</g>
<!-- 4&#45;&gt;5 -->
<g id="edge5" class="edge">
<title>4&#45;&gt;5</title>
<path fill="none" stroke="black" d="M566.11,-18C591.76,-18 631.1,-18 659.77,-18"/>
<polygon fill="black" stroke="black" points="659.8,-21.5 669.8,-18 659.8,-14.5 659.8,-21.5"/>
</g>
<!-- jby -->
<g id="node7" class="node">
<title>jby</title>
<path fill="white" stroke="black" d="M521.5,-758.5C521.5,-758.5 556.5,-758.5 556.5,-758.5 562.5,-758.5 568.5,-764.5 568.5,-770.5 568.5,-770.5 568.5,-815.5 568.5,-815.5 568.5,-821.5 562.5,-827.5 556.5,-827.5 556.5,-827.5 521.5,-827.5 521.5,-827.5 515.5,-827.5 509.5,-821.5 509.5,-815.5 509.5,-815.5 509.5,-770.5 509.5,-770.5 509.5,-764.5 515.5,-758.5 521.5,-758.5"/>
<text text-anchor="middle" x="539" y="-812.3" font-family="Times,serif" font-size="14.00"> </text>
<polyline fill="none" stroke="black" points="509.5,-804.5 568.5,-804.5 "/>
<text text-anchor="middle" x="539" y="-789.3" font-family="Times,serif" font-size="14.00">贾宝玉</text>
<polyline fill="none" stroke="black" points="509.5,-781.5 568.5,-781.5 "/>
<text text-anchor="middle" x="539" y="-766.3" font-family="Times,serif" font-size="14.00"> </text>
</g>
<!-- jc -->
<g id="node8" class="node">
<title>jc</title>
<path fill="white" stroke="black" d="M524,-318.5C524,-318.5 554,-318.5 554,-318.5 560,-318.5 566,-324.5 566,-330.5 566,-330.5 566,-375.5 566,-375.5 566,-381.5 560,-387.5 554,-387.5 554,-387.5 524,-387.5 524,-387.5 518,-387.5 512,-381.5 512,-375.5 512,-375.5 512,-330.5 512,-330.5 512,-324.5 518,-318.5 524,-318.5"/>
<text text-anchor="middle" x="539" y="-372.3" font-family="Times,serif" font-size="14.00"> </text>
<polyline fill="none" stroke="black" points="512,-364.5 566,-364.5 "/>
<text text-anchor="middle" x="539" y="-349.3" font-family="Times,serif" font-size="14.00">贾琮</text>
<polyline fill="none" stroke="black" points="512,-341.5 566,-341.5 "/>
<text text-anchor="middle" x="539" y="-326.3" font-family="Times,serif" font-size="14.00"> </text>
</g>
<!-- jdh -->
<g id="node9" class="node">
<title>jdh</title>
<path fill="white" stroke="black" d="M255.5,-911.5C255.5,-911.5 290.5,-911.5 290.5,-911.5 296.5,-911.5 302.5,-917.5 302.5,-923.5 302.5,-923.5 302.5,-968.5 302.5,-968.5 302.5,-974.5 296.5,-980.5 290.5,-980.5 290.5,-980.5 255.5,-980.5 255.5,-980.5 249.5,-980.5 243.5,-974.5 243.5,-968.5 243.5,-968.5 243.5,-923.5 243.5,-923.5 243.5,-917.5 249.5,-911.5 255.5,-911.5"/>
<text text-anchor="middle" x="273" y="-965.3" font-family="Times,serif" font-size="14.00"> </text>
<polyline fill="none" stroke="black" points="243.5,-957.5 302.5,-957.5 "/>
<text text-anchor="middle" x="273" y="-942.3" font-family="Times,serif" font-size="14.00">贾代化</text>
<polyline fill="none" stroke="black" points="243.5,-934.5 302.5,-934.5 "/>
<text text-anchor="middle" x="273" y="-919.3" font-family="Times,serif" font-size="14.00"> </text>
</g>
<!-- jf -->
<g id="node11" class="node">
<title>jf</title>
<path fill="white" stroke="black" d="M391,-978.5C391,-978.5 421,-978.5 421,-978.5 427,-978.5 433,-984.5 433,-990.5 433,-990.5 433,-1035.5 433,-1035.5 433,-1041.5 427,-1047.5 421,-1047.5 421,-1047.5 391,-1047.5 391,-1047.5 385,-1047.5 379,-1041.5 379,-1035.5 379,-1035.5 379,-990.5 379,-990.5 379,-984.5 385,-978.5 391,-978.5"/>
<text text-anchor="middle" x="406" y="-1032.3" font-family="Times,serif" font-size="14.00"> </text>
<polyline fill="none" stroke="black" points="379,-1024.5 433,-1024.5 "/>
<text text-anchor="middle" x="406" y="-1009.3" font-family="Times,serif" font-size="14.00">贾敷</text>
<polyline fill="none" stroke="black" points="379,-1001.5 433,-1001.5 "/>
<text text-anchor="middle" x="406" y="-986.3" font-family="Times,serif" font-size="14.00"> </text>
</g>
<!-- jdh&#45;&gt;jf -->
<g id="edge7" class="edge">
<title>jdh:s&#45;&gt;jf:n</title>
<path fill="none" stroke="black" d="M304,-969C338.87,-969 340.41,-1004.83 368.77,-1011.82"/>
<polygon fill="black" stroke="black" points="368.67,-1015.33 379,-1013 369.47,-1008.38 368.67,-1015.33"/>
</g>
<!-- jj -->
<g id="node13" class="node">
<title>jj</title>
<path fill="white" stroke="black" d="M391,-890.5C391,-890.5 421,-890.5 421,-890.5 427,-890.5 433,-896.5 433,-902.5 433,-902.5 433,-947.5 433,-947.5 433,-953.5 427,-959.5 421,-959.5 421,-959.5 391,-959.5 391,-959.5 385,-959.5 379,-953.5 379,-947.5 379,-947.5 379,-902.5 379,-902.5 379,-896.5 385,-890.5 391,-890.5"/>
<text text-anchor="middle" x="406" y="-944.3" font-family="Times,serif" font-size="14.00"> </text>
<polyline fill="none" stroke="black" points="379,-936.5 433,-936.5 "/>
<text text-anchor="middle" x="406" y="-921.3" font-family="Times,serif" font-size="14.00">贾敬</text>
<polyline fill="none" stroke="black" points="379,-913.5 433,-913.5 "/>
<text text-anchor="middle" x="406" y="-898.3" font-family="Times,serif" font-size="14.00"> </text>
</g>
<!-- jdh&#45;&gt;jj -->
<g id="edge8" class="edge">
<title>jdh:s&#45;&gt;jj:n</title>
<path fill="none" stroke="black" d="M304,-969C338.87,-969 340.41,-933.17 368.77,-926.18"/>
<polygon fill="black" stroke="black" points="369.47,-929.62 379,-925 368.67,-922.67 369.47,-929.62"/>
</g>
<!-- jds -->
<g id="node10" class="node">
<title>jds</title>
<path fill="white" stroke="black" d="M233,-184.5C233,-184.5 313,-184.5 313,-184.5 319,-184.5 325,-190.5 325,-196.5 325,-196.5 325,-241.5 325,-241.5 325,-247.5 319,-253.5 313,-253.5 313,-253.5 233,-253.5 233,-253.5 227,-253.5 221,-247.5 221,-241.5 221,-241.5 221,-196.5 221,-196.5 221,-190.5 227,-184.5 233,-184.5"/>
<text text-anchor="middle" x="273" y="-238.3" font-family="Times,serif" font-size="14.00">荣国公</text>
<polyline fill="none" stroke="black" points="221,-230.5 325,-230.5 "/>
<text text-anchor="middle" x="250.5" y="-215.3" font-family="Times,serif" font-size="14.00">贾代善</text>
<polyline fill="none" stroke="black" points="280,-207.5 280,-230.5 "/>
<text text-anchor="middle" x="302.5" y="-215.3" font-family="Times,serif" font-size="14.00">贾母</text>
<polyline fill="none" stroke="black" points="221,-207.5 325,-207.5 "/>
<text text-anchor="middle" x="273" y="-192.3" font-family="Times,serif" font-size="14.00"> </text>
</g>
<!-- jm -->
<g id="node16" class="node">
<title>jm</title>
<path fill="white" stroke="black" d="M391,-98.5C391,-98.5 421,-98.5 421,-98.5 427,-98.5 433,-104.5 433,-110.5 433,-110.5 433,-155.5 433,-155.5 433,-161.5 427,-167.5 421,-167.5 421,-167.5 391,-167.5 391,-167.5 385,-167.5 379,-161.5 379,-155.5 379,-155.5 379,-110.5 379,-110.5 379,-104.5 385,-98.5 391,-98.5"/>
<text text-anchor="middle" x="406" y="-152.3" font-family="Times,serif" font-size="14.00"> </text>
<polyline fill="none" stroke="black" points="379,-144.5 433,-144.5 "/>
<text text-anchor="middle" x="406" y="-129.3" font-family="Times,serif" font-size="14.00">贾敏</text>
<polyline fill="none" stroke="black" points="379,-121.5 433,-121.5 "/>
<text text-anchor="middle" x="406" y="-106.3" font-family="Times,serif" font-size="14.00"> </text>
</g>
<!-- jds&#45;&gt;jm -->
<g id="edge16" class="edge">
<title>jds:d&#45;&gt;jm:n</title>
<path fill="none" stroke="black" d="M325,-196C357.99,-196 345.66,-145.59 369.09,-134.95"/>
<polygon fill="black" stroke="black" points="369.87,-138.37 379,-133 368.51,-131.5 369.87,-138.37"/>
</g>
<!-- js -->
<g id="node20" class="node">
<title>js</title>
<path fill="white" stroke="black" d="M391,-207.5C391,-207.5 421,-207.5 421,-207.5 427,-207.5 433,-213.5 433,-219.5 433,-219.5 433,-264.5 433,-264.5 433,-270.5 427,-276.5 421,-276.5 421,-276.5 391,-276.5 391,-276.5 385,-276.5 379,-270.5 379,-264.5 379,-264.5 379,-219.5 379,-219.5 379,-213.5 385,-207.5 391,-207.5"/>
<text text-anchor="middle" x="406" y="-261.3" font-family="Times,serif" font-size="14.00"> </text>
<polyline fill="none" stroke="black" points="379,-253.5 433,-253.5 "/>
<text text-anchor="middle" x="406" y="-238.3" font-family="Times,serif" font-size="14.00">贾赦</text>
<polyline fill="none" stroke="black" points="379,-230.5 433,-230.5 "/>
<text text-anchor="middle" x="406" y="-215.3" font-family="Times,serif" font-size="14.00"> </text>
</g>
<!-- jds&#45;&gt;js -->
<g id="edge14" class="edge">
<title>jds:s&#45;&gt;js:n</title>
<path fill="none" stroke="black" d="M325,-242C345.25,-242 352.69,-242 368.93,-242"/>
<polygon fill="black" stroke="black" points="369,-245.5 379,-242 369,-238.5 369,-245.5"/>
</g>
<!-- jzheng -->
<g id="node28" class="node">
<title>jzheng</title>
<path fill="white" stroke="black" d="M391,-538.5C391,-538.5 421,-538.5 421,-538.5 427,-538.5 433,-544.5 433,-550.5 433,-550.5 433,-595.5 433,-595.5 433,-601.5 427,-607.5 421,-607.5 421,-607.5 391,-607.5 391,-607.5 385,-607.5 379,-601.5 379,-595.5 379,-595.5 379,-550.5 379,-550.5 379,-544.5 385,-538.5 391,-538.5"/>
<text text-anchor="middle" x="406" y="-592.3" font-family="Times,serif" font-size="14.00"> </text>
<polyline fill="none" stroke="black" points="379,-584.5 433,-584.5 "/>
<text text-anchor="middle" x="406" y="-569.3" font-family="Times,serif" font-size="14.00">贾政</text>
<polyline fill="none" stroke="black" points="379,-561.5 433,-561.5 "/>
<text text-anchor="middle" x="406" y="-546.3" font-family="Times,serif" font-size="14.00"> </text>
</g>
<!-- jds&#45;&gt;jzheng -->
<g id="edge15" class="edge">
<title>jds:s&#45;&gt;jzheng:n</title>
<path fill="none" stroke="black" d="M325,-242C470.42,-242 241.63,-557.04 368.77,-572.42"/>
<polygon fill="black" stroke="black" points="368.82,-575.93 379,-573 369.22,-568.94 368.82,-575.93"/>
</g>
<!-- jh -->
<g id="node12" class="node">
<title>jh</title>
<path fill="white" stroke="black" d="M524,-670.5C524,-670.5 554,-670.5 554,-670.5 560,-670.5 566,-676.5 566,-682.5 566,-682.5 566,-727.5 566,-727.5 566,-733.5 560,-739.5 554,-739.5 554,-739.5 524,-739.5 524,-739.5 518,-739.5 512,-733.5 512,-727.5 512,-727.5 512,-682.5 512,-682.5 512,-676.5 518,-670.5 524,-670.5"/>
<text text-anchor="middle" x="539" y="-724.3" font-family="Times,serif" font-size="14.00"> </text>
<polyline fill="none" stroke="black" points="512,-716.5 566,-716.5 "/>
<text text-anchor="middle" x="539" y="-701.3" font-family="Times,serif" font-size="14.00">贾环</text>
<polyline fill="none" stroke="black" points="512,-693.5 566,-693.5 "/>
<text text-anchor="middle" x="539" y="-678.3" font-family="Times,serif" font-size="14.00"> </text>
</g>
<!-- jxc -->
<g id="node22" class="node">
<title>jxc</title>
<path fill="white" stroke="black" d="M521.5,-846.5C521.5,-846.5 556.5,-846.5 556.5,-846.5 562.5,-846.5 568.5,-852.5 568.5,-858.5 568.5,-858.5 568.5,-903.5 568.5,-903.5 568.5,-909.5 562.5,-915.5 556.5,-915.5 556.5,-915.5 521.5,-915.5 521.5,-915.5 515.5,-915.5 509.5,-909.5 509.5,-903.5 509.5,-903.5 509.5,-858.5 509.5,-858.5 509.5,-852.5 515.5,-846.5 521.5,-846.5"/>
<text text-anchor="middle" x="539" y="-900.3" font-family="Times,serif" font-size="14.00"> </text>
<polyline fill="none" stroke="black" points="509.5,-892.5 568.5,-892.5 "/>
<text text-anchor="middle" x="539" y="-877.3" font-family="Times,serif" font-size="14.00">贾惜春</text>
<polyline fill="none" stroke="black" points="509.5,-869.5 568.5,-869.5 "/>
<text text-anchor="middle" x="539" y="-854.3" font-family="Times,serif" font-size="14.00"> </text>
</g>
<!-- jj&#45;&gt;jxc -->
<g id="edge10" class="edge">
<title>jj:d&#45;&gt;jxc:n</title>
<path fill="none" stroke="black" d="M433,-902C463.96,-902 471.85,-885.2 497.94,-881.65"/>
<polygon fill="black" stroke="black" points="498.25,-885.14 508,-881 497.79,-878.15 498.25,-885.14"/>
</g>
<!-- jz -->
<g id="node27" class="node">
<title>jz</title>
<path fill="white" stroke="black" d="M524,-934.5C524,-934.5 554,-934.5 554,-934.5 560,-934.5 566,-940.5 566,-946.5 566,-946.5 566,-991.5 566,-991.5 566,-997.5 560,-1003.5 554,-1003.5 554,-1003.5 524,-1003.5 524,-1003.5 518,-1003.5 512,-997.5 512,-991.5 512,-991.5 512,-946.5 512,-946.5 512,-940.5 518,-934.5 524,-934.5"/>
<text text-anchor="middle" x="539" y="-988.3" font-family="Times,serif" font-size="14.00"> </text>
<polyline fill="none" stroke="black" points="512,-980.5 566,-980.5 "/>
<text text-anchor="middle" x="539" y="-965.3" font-family="Times,serif" font-size="14.00">贾珍</text>
<polyline fill="none" stroke="black" points="512,-957.5 566,-957.5 "/>
<text text-anchor="middle" x="539" y="-942.3" font-family="Times,serif" font-size="14.00"> </text>
</g>
<!-- jj&#45;&gt;jz -->
<g id="edge9" class="edge">
<title>jj:s&#45;&gt;jz:n</title>
<path fill="none" stroke="black" d="M433,-948C465.25,-948 473.53,-964.95 500.92,-968.39"/>
<polygon fill="black" stroke="black" points="500.81,-971.89 511,-969 501.23,-964.91 500.81,-971.89"/>
</g>
<!-- jl -->
<g id="node14" class="node">
<title>jl</title>
<path fill="white" stroke="black" d="M499,-230.5C499,-230.5 579,-230.5 579,-230.5 585,-230.5 591,-236.5 591,-242.5 591,-242.5 591,-287.5 591,-287.5 591,-293.5 585,-299.5 579,-299.5 579,-299.5 499,-299.5 499,-299.5 493,-299.5 487,-293.5 487,-287.5 487,-287.5 487,-242.5 487,-242.5 487,-236.5 493,-230.5 499,-230.5"/>
<text text-anchor="middle" x="539" y="-284.3" font-family="Times,serif" font-size="14.00"> </text>
<polyline fill="none" stroke="black" points="487,-276.5 591,-276.5 "/>
<text text-anchor="middle" x="509.5" y="-261.3" font-family="Times,serif" font-size="14.00">贾琏</text>
<polyline fill="none" stroke="black" points="532,-253.5 532,-276.5 "/>
<text text-anchor="middle" x="561.5" y="-261.3" font-family="Times,serif" font-size="14.00">王熙凤</text>
<polyline fill="none" stroke="black" points="487,-253.5 591,-253.5 "/>
<text text-anchor="middle" x="539" y="-238.3" font-family="Times,serif" font-size="14.00"> </text>
</g>
<!-- jqj -->
<g id="node18" class="node">
<title>jqj</title>
<path fill="white" stroke="black" d="M679.5,-207.5C679.5,-207.5 714.5,-207.5 714.5,-207.5 720.5,-207.5 726.5,-213.5 726.5,-219.5 726.5,-219.5 726.5,-264.5 726.5,-264.5 726.5,-270.5 720.5,-276.5 714.5,-276.5 714.5,-276.5 679.5,-276.5 679.5,-276.5 673.5,-276.5 667.5,-270.5 667.5,-264.5 667.5,-264.5 667.5,-219.5 667.5,-219.5 667.5,-213.5 673.5,-207.5 679.5,-207.5"/>
<text text-anchor="middle" x="697" y="-261.3" font-family="Times,serif" font-size="14.00"> </text>
<polyline fill="none" stroke="black" points="667.5,-253.5 726.5,-253.5 "/>
<text text-anchor="middle" x="697" y="-238.3" font-family="Times,serif" font-size="14.00">贾巧姐</text>
<polyline fill="none" stroke="black" points="667.5,-230.5 726.5,-230.5 "/>
<text text-anchor="middle" x="697" y="-215.3" font-family="Times,serif" font-size="14.00"> </text>
</g>
<!-- jl&#45;&gt;jqj -->
<g id="edge26" class="edge">
<title>jl:d&#45;&gt;jqj:n</title>
<path fill="none" stroke="black" d="M591,-242C620.69,-242 630.54,-242 655.89,-242"/>
<polygon fill="black" stroke="black" points="656,-245.5 666,-242 656,-238.5 656,-245.5"/>
</g>
<!-- jlan -->
<g id="node15" class="node">
<title>jlan</title>
<path fill="white" stroke="black" d="M682,-605.5C682,-605.5 712,-605.5 712,-605.5 718,-605.5 724,-611.5 724,-617.5 724,-617.5 724,-662.5 724,-662.5 724,-668.5 718,-674.5 712,-674.5 712,-674.5 682,-674.5 682,-674.5 676,-674.5 670,-668.5 670,-662.5 670,-662.5 670,-617.5 670,-617.5 670,-611.5 676,-605.5 682,-605.5"/>
<text text-anchor="middle" x="697" y="-659.3" font-family="Times,serif" font-size="14.00"> </text>
<polyline fill="none" stroke="black" points="670,-651.5 724,-651.5 "/>
<text text-anchor="middle" x="697" y="-636.3" font-family="Times,serif" font-size="14.00">贾兰</text>
<polyline fill="none" stroke="black" points="670,-628.5 724,-628.5 "/>
<text text-anchor="middle" x="697" y="-613.3" font-family="Times,serif" font-size="14.00"> </text>
</g>
<!-- ldy -->
<g id="node30" class="node">
<title>ldy</title>
<path fill="white" stroke="black" d="M521.5,-54.5C521.5,-54.5 556.5,-54.5 556.5,-54.5 562.5,-54.5 568.5,-60.5 568.5,-66.5 568.5,-66.5 568.5,-111.5 568.5,-111.5 568.5,-117.5 562.5,-123.5 556.5,-123.5 556.5,-123.5 521.5,-123.5 521.5,-123.5 515.5,-123.5 509.5,-117.5 509.5,-111.5 509.5,-111.5 509.5,-66.5 509.5,-66.5 509.5,-60.5 515.5,-54.5 521.5,-54.5"/>
<text text-anchor="middle" x="539" y="-108.3" font-family="Times,serif" font-size="14.00"> </text>
<polyline fill="none" stroke="black" points="509.5,-100.5 568.5,-100.5 "/>
<text text-anchor="middle" x="539" y="-85.3" font-family="Times,serif" font-size="14.00">林黛玉</text>
<polyline fill="none" stroke="black" points="509.5,-77.5 568.5,-77.5 "/>
<text text-anchor="middle" x="539" y="-62.3" font-family="Times,serif" font-size="14.00"> </text>
</g>
<!-- jm&#45;&gt;ldy -->
<g id="edge25" class="edge">
<title>jm:d&#45;&gt;ldy:n</title>
<path fill="none" stroke="black" d="M433,-110C463.96,-110 471.85,-93.2 497.94,-89.65"/>
<polygon fill="black" stroke="black" points="498.25,-93.14 508,-89 497.79,-86.15 498.25,-93.14"/>
</g>
<!-- jq -->
<g id="node17" class="node">
<title>jq</title>
<path fill="white" stroke="black" d="M682,-1045.5C682,-1045.5 712,-1045.5 712,-1045.5 718,-1045.5 724,-1051.5 724,-1057.5 724,-1057.5 724,-1102.5 724,-1102.5 724,-1108.5 718,-1114.5 712,-1114.5 712,-1114.5 682,-1114.5 682,-1114.5 676,-1114.5 670,-1108.5 670,-1102.5 670,-1102.5 670,-1057.5 670,-1057.5 670,-1051.5 676,-1045.5 682,-1045.5"/>
<text text-anchor="middle" x="697" y="-1099.3" font-family="Times,serif" font-size="14.00"> </text>
<polyline fill="none" stroke="black" points="670,-1091.5 724,-1091.5 "/>
<text text-anchor="middle" x="697" y="-1076.3" font-family="Times,serif" font-size="14.00">贾蔷</text>
<polyline fill="none" stroke="black" points="670,-1068.5 724,-1068.5 "/>
<text text-anchor="middle" x="697" y="-1053.3" font-family="Times,serif" font-size="14.00"> </text>
</g>
<!-- jr -->
<g id="node19" class="node">
<title>jr</title>
<path fill="white" stroke="black" d="M657,-957.5C657,-957.5 737,-957.5 737,-957.5 743,-957.5 749,-963.5 749,-969.5 749,-969.5 749,-1014.5 749,-1014.5 749,-1020.5 743,-1026.5 737,-1026.5 737,-1026.5 657,-1026.5 657,-1026.5 651,-1026.5 645,-1020.5 645,-1014.5 645,-1014.5 645,-969.5 645,-969.5 645,-963.5 651,-957.5 657,-957.5"/>
<text text-anchor="middle" x="697" y="-1011.3" font-family="Times,serif" font-size="14.00"> </text>
<polyline fill="none" stroke="black" points="645,-1003.5 749,-1003.5 "/>
<text text-anchor="middle" x="667.5" y="-988.3" font-family="Times,serif" font-size="14.00">贾蓉</text>
<polyline fill="none" stroke="black" points="690,-980.5 690,-1003.5 "/>
<text text-anchor="middle" x="719.5" y="-988.3" font-family="Times,serif" font-size="14.00">秦可卿</text>
<polyline fill="none" stroke="black" points="645,-980.5 749,-980.5 "/>
<text text-anchor="middle" x="697" y="-965.3" font-family="Times,serif" font-size="14.00"> </text>
</g>
<!-- js&#45;&gt;jc -->
<g id="edge18" class="edge">
<title>js:s&#45;&gt;jc:n</title>
<path fill="none" stroke="black" d="M433,-265C481.38,-265 462.24,-340.42 500.6,-351.62"/>
<polygon fill="black" stroke="black" points="500.63,-355.15 511,-353 501.55,-348.21 500.63,-355.15"/>
</g>
<!-- js&#45;&gt;jl -->
<g id="edge17" class="edge">
<title>js:s&#45;&gt;jl:n</title>
<path fill="none" stroke="black" d="M433,-265C453.25,-265 460.69,-265 476.93,-265"/>
<polygon fill="black" stroke="black" points="477,-268.5 487,-265 477,-261.5 477,-268.5"/>
</g>
<!-- jyc -->
<g id="node24" class="node">
<title>jyc</title>
<path fill="white" stroke="black" d="M521.5,-142.5C521.5,-142.5 556.5,-142.5 556.5,-142.5 562.5,-142.5 568.5,-148.5 568.5,-154.5 568.5,-154.5 568.5,-199.5 568.5,-199.5 568.5,-205.5 562.5,-211.5 556.5,-211.5 556.5,-211.5 521.5,-211.5 521.5,-211.5 515.5,-211.5 509.5,-205.5 509.5,-199.5 509.5,-199.5 509.5,-154.5 509.5,-154.5 509.5,-148.5 515.5,-142.5 521.5,-142.5"/>
<text text-anchor="middle" x="539" y="-196.3" font-family="Times,serif" font-size="14.00"> </text>
<polyline fill="none" stroke="black" points="509.5,-188.5 568.5,-188.5 "/>
<text text-anchor="middle" x="539" y="-173.3" font-family="Times,serif" font-size="14.00">贾迎春</text>
<polyline fill="none" stroke="black" points="509.5,-165.5 568.5,-165.5 "/>
<text text-anchor="middle" x="539" y="-150.3" font-family="Times,serif" font-size="14.00"> </text>
</g>
<!-- js&#45;&gt;jyc -->
<g id="edge19" class="edge">
<title>js:d&#45;&gt;jyc:n</title>
<path fill="none" stroke="black" d="M433,-219C467.47,-219 469.69,-184.8 497.87,-178.12"/>
<polygon fill="black" stroke="black" points="498.45,-181.58 508,-177 497.68,-174.62 498.45,-181.58"/>
</g>
<!-- jtc -->
<g id="node21" class="node">
<title>jtc</title>
<path fill="white" stroke="black" d="M521.5,-406.5C521.5,-406.5 556.5,-406.5 556.5,-406.5 562.5,-406.5 568.5,-412.5 568.5,-418.5 568.5,-418.5 568.5,-463.5 568.5,-463.5 568.5,-469.5 562.5,-475.5 556.5,-475.5 556.5,-475.5 521.5,-475.5 521.5,-475.5 515.5,-475.5 509.5,-469.5 509.5,-463.5 509.5,-463.5 509.5,-418.5 509.5,-418.5 509.5,-412.5 515.5,-406.5 521.5,-406.5"/>
<text text-anchor="middle" x="539" y="-460.3" font-family="Times,serif" font-size="14.00"> </text>
<polyline fill="none" stroke="black" points="509.5,-452.5 568.5,-452.5 "/>
<text text-anchor="middle" x="539" y="-437.3" font-family="Times,serif" font-size="14.00">贾探春</text>
<polyline fill="none" stroke="black" points="509.5,-429.5 568.5,-429.5 "/>
<text text-anchor="middle" x="539" y="-414.3" font-family="Times,serif" font-size="14.00"> </text>
</g>
<!-- jy -->
<g id="node23" class="node">
<title>jy</title>
<path fill="white" stroke="black" d="M120,-888.5C120,-888.5 155,-888.5 155,-888.5 161,-888.5 167,-894.5 167,-900.5 167,-900.5 167,-945.5 167,-945.5 167,-951.5 161,-957.5 155,-957.5 155,-957.5 120,-957.5 120,-957.5 114,-957.5 108,-951.5 108,-945.5 108,-945.5 108,-900.5 108,-900.5 108,-894.5 114,-888.5 120,-888.5"/>
<text text-anchor="middle" x="137.5" y="-942.3" font-family="Times,serif" font-size="14.00">宁国公</text>
<polyline fill="none" stroke="black" points="108,-934.5 167,-934.5 "/>
<text text-anchor="middle" x="137.5" y="-919.3" font-family="Times,serif" font-size="14.00">贾演</text>
<polyline fill="none" stroke="black" points="108,-911.5 167,-911.5 "/>
<text text-anchor="middle" x="137.5" y="-896.3" font-family="Times,serif" font-size="14.00"> </text>
</g>
<!-- jy&#45;&gt;jdh -->
<g id="edge6" class="edge">
<title>jy:s&#45;&gt;jdh:n</title>
<path fill="none" stroke="black" d="M167,-946C196.69,-946 206.54,-946 231.89,-946"/>
<polygon fill="black" stroke="black" points="232,-949.5 242,-946 232,-942.5 232,-949.5"/>
</g>
<!-- jyc1 -->
<g id="node25" class="node">
<title>jyc1</title>
<path fill="white" stroke="black" d="M521.5,-494.5C521.5,-494.5 556.5,-494.5 556.5,-494.5 562.5,-494.5 568.5,-500.5 568.5,-506.5 568.5,-506.5 568.5,-551.5 568.5,-551.5 568.5,-557.5 562.5,-563.5 556.5,-563.5 556.5,-563.5 521.5,-563.5 521.5,-563.5 515.5,-563.5 509.5,-557.5 509.5,-551.5 509.5,-551.5 509.5,-506.5 509.5,-506.5 509.5,-500.5 515.5,-494.5 521.5,-494.5"/>
<text text-anchor="middle" x="539" y="-548.3" font-family="Times,serif" font-size="14.00"> </text>
<polyline fill="none" stroke="black" points="509.5,-540.5 568.5,-540.5 "/>
<text text-anchor="middle" x="539" y="-525.3" font-family="Times,serif" font-size="14.00">贾元春</text>
<polyline fill="none" stroke="black" points="509.5,-517.5 568.5,-517.5 "/>
<text text-anchor="middle" x="539" y="-502.3" font-family="Times,serif" font-size="14.00"> </text>
</g>
<!-- jyuan -->
<g id="node26" class="node">
<title>jyuan</title>
<path fill="white" stroke="black" d="M120,-161.5C120,-161.5 155,-161.5 155,-161.5 161,-161.5 167,-167.5 167,-173.5 167,-173.5 167,-218.5 167,-218.5 167,-224.5 161,-230.5 155,-230.5 155,-230.5 120,-230.5 120,-230.5 114,-230.5 108,-224.5 108,-218.5 108,-218.5 108,-173.5 108,-173.5 108,-167.5 114,-161.5 120,-161.5"/>
<text text-anchor="middle" x="137.5" y="-215.3" font-family="Times,serif" font-size="14.00">荣国公</text>
<polyline fill="none" stroke="black" points="108,-207.5 167,-207.5 "/>
<text text-anchor="middle" x="137.5" y="-192.3" font-family="Times,serif" font-size="14.00">贾源</text>
<polyline fill="none" stroke="black" points="108,-184.5 167,-184.5 "/>
<text text-anchor="middle" x="137.5" y="-169.3" font-family="Times,serif" font-size="14.00"> </text>
</g>
<!-- jyuan&#45;&gt;jds -->
<g id="edge13" class="edge">
<title>jyuan:s&#45;&gt;jds:n</title>
<path fill="none" stroke="black" d="M167,-219C187.25,-219 194.69,-219 210.93,-219"/>
<polygon fill="black" stroke="black" points="211,-222.5 221,-219 211,-215.5 211,-222.5"/>
</g>
<!-- jz&#45;&gt;jr -->
<g id="edge11" class="edge">
<title>jz:s&#45;&gt;jr:n</title>
<path fill="none" stroke="black" d="M567,-992C598.01,-992 608.22,-992 634.84,-992"/>
<polygon fill="black" stroke="black" points="635,-995.5 645,-992 635,-988.5 635,-995.5"/>
</g>
<!-- jz&#45;&gt;jr -->
<g id="edge12" class="edge">
<title>jz:s&#45;&gt;jr:qkq</title>
<path fill="none" stroke="grey" stroke-dasharray="1,5" d="M567,-992C605,-992 607.85,-1019.05 645,-1027 667.6,-1031.84 732.43,-1043.11 749,-1027 756.93,-1019.29 761.96,-1004.85 758.61,-997.15"/>
<polygon fill="grey" stroke="grey" points="760.38,-994.13 750,-992 756.78,-1000.14 760.38,-994.13"/>
</g>
<!-- jzheng&#45;&gt;jby -->
<g id="edge21" class="edge">
<title>jzheng:s&#45;&gt;jby:n</title>
<path fill="none" stroke="black" d="M433,-596C523.03,-596 422.78,-777.91 497.94,-792.12"/>
<polygon fill="black" stroke="black" points="497.73,-795.62 508,-793 498.34,-788.64 497.73,-795.62"/>
</g>
<!-- jzheng&#45;&gt;jh -->
<g id="edge22" class="edge">
<title>jzheng:s&#45;&gt;jh:n</title>
<path fill="none" stroke="black" d="M433,-596C488.85,-596 456.18,-691.8 500.96,-703.78"/>
<polygon fill="black" stroke="black" points="500.65,-707.26 511,-705 501.5,-700.32 500.65,-707.26"/>
</g>
<!-- jzheng&#45;&gt;jtc -->
<g id="edge24" class="edge">
<title>jzheng:d&#45;&gt;jtc:n</title>
<path fill="none" stroke="black" d="M433,-550C488.01,-550 454.27,-454.6 497.84,-442.3"/>
<polygon fill="black" stroke="black" points="498.53,-445.74 508,-441 497.64,-438.8 498.53,-445.74"/>
</g>
<!-- jzheng&#45;&gt;jyc1 -->
<g id="edge23" class="edge">
<title>jzheng:d&#45;&gt;jyc1:n</title>
<path fill="none" stroke="black" d="M433,-550C463.96,-550 471.85,-533.2 497.94,-529.65"/>
<polygon fill="black" stroke="black" points="498.25,-533.14 508,-529 497.79,-526.15 498.25,-533.14"/>
</g>
<!-- jzhu -->
<g id="node29" class="node">
<title>jzhu</title>
<path fill="white" stroke="black" d="M506,-582.5C506,-582.5 572,-582.5 572,-582.5 578,-582.5 584,-588.5 584,-594.5 584,-594.5 584,-639.5 584,-639.5 584,-645.5 578,-651.5 572,-651.5 572,-651.5 506,-651.5 506,-651.5 500,-651.5 494,-645.5 494,-639.5 494,-639.5 494,-594.5 494,-594.5 494,-588.5 500,-582.5 506,-582.5"/>
<text text-anchor="middle" x="539" y="-636.3" font-family="Times,serif" font-size="14.00"> </text>
<polyline fill="none" stroke="black" points="494,-628.5 584,-628.5 "/>
<text text-anchor="middle" x="516.5" y="-613.3" font-family="Times,serif" font-size="14.00">贾珠</text>
<polyline fill="none" stroke="black" points="539,-605.5 539,-628.5 "/>
<text text-anchor="middle" x="561.5" y="-613.3" font-family="Times,serif" font-size="14.00">李纨</text>
<polyline fill="none" stroke="black" points="494,-605.5 584,-605.5 "/>
<text text-anchor="middle" x="539" y="-590.3" font-family="Times,serif" font-size="14.00"> </text>
</g>
<!-- jzheng&#45;&gt;jzhu -->
<g id="edge20" class="edge">
<title>jzheng:s&#45;&gt;jzhu:n</title>
<path fill="none" stroke="black" d="M433,-596C457.5,-596 463.38,-611.79 482.94,-615.99"/>
<polygon fill="black" stroke="black" points="482.7,-619.48 493,-617 483.4,-612.52 482.7,-619.48"/>
</g>
<!-- jzhu&#45;&gt;jlan -->
<g id="edge27" class="edge">
<title>jzhu:s&#45;&gt;jlan:n</title>
<path fill="none" stroke="black" d="M585,-640C618.69,-640 629.58,-640 658.81,-640"/>
<polygon fill="black" stroke="black" points="659,-643.5 669,-640 659,-636.5 659,-643.5"/>
</g>
</g>
</svg>
