<?xml version="1.0" encoding="UTF-8" standalone="no"?>
<!DOCTYPE svg PUBLIC "-//W3C//DTD SVG 1.1//EN"
 "http://www.w3.org/Graphics/SVG/1.1/DTD/svg11.dtd">
<!-- Generated by graphviz version 2.47.1 (20210417.1919)
 -->
<!-- Title: relationship Pages: 1 -->
<svg width="884pt" height="681pt"
 viewBox="0.00 0.00 883.50 681.00" xmlns="http://www.w3.org/2000/svg" xmlns:xlink="http://www.w3.org/1999/xlink">
<g id="graph0" class="graph" transform="scale(1 1) rotate(0) translate(4 677)">
<title>relationship</title>
<polygon fill="white" stroke="transparent" points="-4,4 -4,-677 879.5,-677 879.5,4 -4,4"/>
<text text-anchor="middle" x="437.75" y="-10.8" font-family="Times,serif" font-size="24.00" fill="#d02090">阶级金字塔</text>
<!-- dyt -->
<g id="node1" class="node">
<title>dyt</title>
<path fill="#ffaeb9" stroke="darkviolet" d="M171,-334.5C171,-334.5 288,-334.5 288,-334.5 294,-334.5 300,-340.5 300,-346.5 300,-346.5 300,-358.5 300,-358.5 300,-364.5 294,-370.5 288,-370.5 288,-370.5 171,-370.5 171,-370.5 165,-370.5 159,-364.5 159,-358.5 159,-358.5 159,-346.5 159,-346.5 159,-340.5 165,-334.5 171,-334.5"/>
<text text-anchor="middle" x="188.5" y="-348.8" font-family="Times,serif" font-size="14.00" fill="#800000">后勤部</text>
<polyline fill="none" stroke="darkviolet" points="218,-334.5 218,-370.5 "/>
<text text-anchor="middle" x="247.5" y="-348.8" font-family="Times,serif" font-size="14.00" fill="#800000">丁玉婷</text>
<polyline fill="none" stroke="darkviolet" points="277,-334.5 277,-370.5 "/>
<text text-anchor="middle" x="288.5" y="-348.8" font-family="Times,serif" font-size="14.00" fill="#800000">4</text>
</g>
<!-- lqq -->
<g id="node3" class="node">
<title>lqq</title>
<path fill="#ffaeb9" stroke="darkviolet" d="M171,-215.5C171,-215.5 288,-215.5 288,-215.5 294,-215.5 300,-221.5 300,-227.5 300,-227.5 300,-239.5 300,-239.5 300,-245.5 294,-251.5 288,-251.5 288,-251.5 171,-251.5 171,-251.5 165,-251.5 159,-245.5 159,-239.5 159,-239.5 159,-227.5 159,-227.5 159,-221.5 165,-215.5 171,-215.5"/>
<text text-anchor="middle" x="188.5" y="-229.8" font-family="Times,serif" font-size="14.00" fill="#800000">后勤部</text>
<polyline fill="none" stroke="darkviolet" points="218,-215.5 218,-251.5 "/>
<text text-anchor="middle" x="247.5" y="-229.8" font-family="Times,serif" font-size="14.00" fill="#800000">刘倩倩</text>
<polyline fill="none" stroke="darkviolet" points="277,-215.5 277,-251.5 "/>
<text text-anchor="middle" x="288.5" y="-229.8" font-family="Times,serif" font-size="14.00" fill="#800000">3</text>
</g>
<!-- dyt&#45;&gt;lqq -->
<g id="edge16" class="edge">
<title>dyt:d&#45;&gt;lqq:d</title>
<path fill="none" stroke="black" d="M188.5,-333.5C188.5,-300.96 188.5,-290.34 188.5,-262.25"/>
<polygon fill="black" stroke="black" points="188.5,-252 193,-262 188.5,-257 188.5,-262 188.5,-262 188.5,-262 188.5,-257 184,-262 188.5,-252 188.5,-252"/>
</g>
<!-- jps -->
<g id="node2" class="node">
<title>jps</title>
<path fill="#ffaeb9" stroke="darkviolet" d="M674,-215.5C674,-215.5 791,-215.5 791,-215.5 797,-215.5 803,-221.5 803,-227.5 803,-227.5 803,-239.5 803,-239.5 803,-245.5 797,-251.5 791,-251.5 791,-251.5 674,-251.5 674,-251.5 668,-251.5 662,-245.5 662,-239.5 662,-239.5 662,-227.5 662,-227.5 662,-221.5 668,-215.5 674,-215.5"/>
<text text-anchor="middle" x="691.5" y="-229.8" font-family="Times,serif" font-size="14.00" fill="#800000">安全部</text>
<polyline fill="none" stroke="darkviolet" points="721,-215.5 721,-251.5 "/>
<text text-anchor="middle" x="750.5" y="-229.8" font-family="Times,serif" font-size="14.00" fill="#800000">蒋佩珊</text>
<polyline fill="none" stroke="darkviolet" points="780,-215.5 780,-251.5 "/>
<text text-anchor="middle" x="791.5" y="-229.8" font-family="Times,serif" font-size="14.00" fill="#800000">3</text>
</g>
<!-- qs -->
<g id="node4" class="node">
<title>qs</title>
<path fill="#ffaeb9" stroke="darkviolet" d="M171,-124.5C171,-124.5 274,-124.5 274,-124.5 280,-124.5 286,-130.5 286,-136.5 286,-136.5 286,-148.5 286,-148.5 286,-154.5 280,-160.5 274,-160.5 274,-160.5 171,-160.5 171,-160.5 165,-160.5 159,-154.5 159,-148.5 159,-148.5 159,-136.5 159,-136.5 159,-130.5 165,-124.5 171,-124.5"/>
<text text-anchor="middle" x="188.5" y="-138.8" font-family="Times,serif" font-size="14.00" fill="#800000">后勤部</text>
<polyline fill="none" stroke="darkviolet" points="218,-124.5 218,-160.5 "/>
<text text-anchor="middle" x="240.5" y="-138.8" font-family="Times,serif" font-size="14.00" fill="#800000">乔舒</text>
<polyline fill="none" stroke="darkviolet" points="263,-124.5 263,-160.5 "/>
<text text-anchor="middle" x="274.5" y="-138.8" font-family="Times,serif" font-size="14.00" fill="#800000">2</text>
</g>
<!-- lqq&#45;&gt;qs -->
<g id="edge17" class="edge">
<title>lqq:d&#45;&gt;qs:d</title>
<path fill="none" stroke="black" d="M188.5,-215C188.5,-194.75 188.5,-187.31 188.5,-171.07"/>
<polygon fill="black" stroke="black" points="188.5,-161 193,-171 188.5,-166 188.5,-171 188.5,-171 188.5,-171 188.5,-166 184,-171 188.5,-161 188.5,-161"/>
</g>
<!-- smy -->
<g id="node5" class="node">
<title>smy</title>
<path fill="#cd8c95" stroke="darkviolet" d="M12,-334.5C12,-334.5 129,-334.5 129,-334.5 135,-334.5 141,-340.5 141,-346.5 141,-346.5 141,-358.5 141,-358.5 141,-364.5 135,-370.5 129,-370.5 129,-370.5 12,-370.5 12,-370.5 6,-370.5 0,-364.5 0,-358.5 0,-358.5 0,-346.5 0,-346.5 0,-340.5 6,-334.5 12,-334.5"/>
<text text-anchor="middle" x="29.5" y="-348.8" font-family="Times,serif" font-size="14.00" fill="#800000">热兵器</text>
<polyline fill="none" stroke="darkviolet" points="59,-334.5 59,-370.5 "/>
<text text-anchor="middle" x="88.5" y="-348.8" font-family="Times,serif" font-size="14.00" fill="#800000">沈梦瑶</text>
<polyline fill="none" stroke="darkviolet" points="118,-334.5 118,-370.5 "/>
<text text-anchor="middle" x="129.5" y="-348.8" font-family="Times,serif" font-size="14.00" fill="#800000">4</text>
</g>
<!-- ty -->
<g id="node6" class="node">
<title>ty</title>
<path fill="#ffaeb9" stroke="darkviolet" d="M129,-453.5C129,-453.5 232,-453.5 232,-453.5 238,-453.5 244,-459.5 244,-465.5 244,-465.5 244,-479.5 244,-479.5 244,-485.5 238,-491.5 232,-491.5 232,-491.5 129,-491.5 129,-491.5 123,-491.5 117,-485.5 117,-479.5 117,-479.5 117,-465.5 117,-465.5 117,-459.5 123,-453.5 129,-453.5"/>
<text text-anchor="middle" x="146.5" y="-476.3" font-family="Times,serif" font-size="14.00" fill="#800000">总管</text>
<text text-anchor="middle" x="146.5" y="-461.3" font-family="Times,serif" font-size="14.00" fill="#800000">后勤部</text>
<polyline fill="none" stroke="darkviolet" points="176,-453.5 176,-491.5 "/>
<text text-anchor="middle" x="198.5" y="-468.8" font-family="Times,serif" font-size="14.00" fill="#800000">唐颖</text>
<polyline fill="none" stroke="darkviolet" points="221,-453.5 221,-491.5 "/>
<text text-anchor="middle" x="232.5" y="-468.8" font-family="Times,serif" font-size="14.00" fill="#800000">5</text>
</g>
<!-- ty&#45;&gt;dyt -->
<g id="edge12" class="edge">
<title>ty:d&#45;&gt;dyt:d</title>
<path fill="none" stroke="black" d="M146.5,-453C146.5,-415.91 181.29,-412.58 187.54,-381.56"/>
<polygon fill="black" stroke="black" points="188.5,-371.5 192.03,-381.88 188.03,-376.48 187.55,-381.46 187.55,-381.46 187.55,-381.46 188.03,-376.48 183.07,-381.03 188.5,-371.5 188.5,-371.5"/>
</g>
<!-- wq -->
<g id="node7" class="node">
<title>wq</title>
<path fill="#ffaeb9" stroke="darkviolet" d="M489,-334.5C489,-334.5 592,-334.5 592,-334.5 598,-334.5 604,-340.5 604,-346.5 604,-346.5 604,-358.5 604,-358.5 604,-364.5 598,-370.5 592,-370.5 592,-370.5 489,-370.5 489,-370.5 483,-370.5 477,-364.5 477,-358.5 477,-358.5 477,-346.5 477,-346.5 477,-340.5 483,-334.5 489,-334.5"/>
<text text-anchor="middle" x="506.5" y="-348.8" font-family="Times,serif" font-size="14.00" fill="#800000">医疗部</text>
<polyline fill="none" stroke="darkviolet" points="536,-334.5 536,-370.5 "/>
<text text-anchor="middle" x="558.5" y="-348.8" font-family="Times,serif" font-size="14.00" fill="#800000">王蔷</text>
<polyline fill="none" stroke="darkviolet" points="581,-334.5 581,-370.5 "/>
<text text-anchor="middle" x="592.5" y="-348.8" font-family="Times,serif" font-size="14.00" fill="#800000">4</text>
</g>
<!-- ty&#45;&gt;wq -->
<g id="edge10" class="edge">
<title>ty:lv&#45;&gt;wq:lv</title>
<path fill="none" stroke="black" d="M245.5,-472.5C322.36,-472.5 569.93,-453.55 591.06,-381.53"/>
<polygon fill="black" stroke="black" points="592.5,-371.5 595.53,-382.04 591.79,-376.45 591.08,-381.4 591.08,-381.4 591.08,-381.4 591.79,-376.45 586.62,-380.76 592.5,-371.5 592.5,-371.5"/>
</g>
<!-- wqi -->
<g id="node8" class="node">
<title>wqi</title>
<path fill="#ffaeb9" stroke="darkviolet" d="M543,-215.5C543,-215.5 632,-215.5 632,-215.5 638,-215.5 644,-221.5 644,-227.5 644,-227.5 644,-239.5 644,-239.5 644,-245.5 638,-251.5 632,-251.5 632,-251.5 543,-251.5 543,-251.5 537,-251.5 531,-245.5 531,-239.5 531,-239.5 531,-227.5 531,-227.5 531,-221.5 537,-215.5 543,-215.5"/>
<text text-anchor="middle" x="553.5" y="-229.8" font-family="Times,serif" font-size="14.00" fill="#800000">基建</text>
<polyline fill="none" stroke="darkviolet" points="576,-215.5 576,-251.5 "/>
<text text-anchor="middle" x="598.5" y="-229.8" font-family="Times,serif" font-size="14.00" fill="#800000">王琪</text>
<polyline fill="none" stroke="darkviolet" points="621,-215.5 621,-251.5 "/>
<text text-anchor="middle" x="632.5" y="-229.8" font-family="Times,serif" font-size="14.00" fill="#800000">3</text>
</g>
<!-- ty&#45;&gt;wqi -->
<g id="edge11" class="edge">
<title>ty:lv&#45;&gt;wqi:lv</title>
<path fill="none" stroke="black" d="M245.5,-472.5C328.68,-472.5 555.55,-459.62 612.5,-399 655.26,-353.48 634.96,-321.46 632.7,-262.16"/>
<polygon fill="black" stroke="black" points="632.5,-252 637.19,-261.91 632.6,-257 632.69,-262 632.69,-262 632.69,-262 632.6,-257 628.19,-262.08 632.5,-252 632.5,-252"/>
</g>
<!-- yxh -->
<g id="node10" class="node">
<title>yxh</title>
<path fill="#ffaeb9" stroke="darkviolet" d="M330,-334.5C330,-334.5 447,-334.5 447,-334.5 453,-334.5 459,-340.5 459,-346.5 459,-346.5 459,-358.5 459,-358.5 459,-364.5 453,-370.5 447,-370.5 447,-370.5 330,-370.5 330,-370.5 324,-370.5 318,-364.5 318,-358.5 318,-358.5 318,-346.5 318,-346.5 318,-340.5 324,-334.5 330,-334.5"/>
<text text-anchor="middle" x="347.5" y="-348.8" font-family="Times,serif" font-size="14.00" fill="#800000">运输部</text>
<polyline fill="none" stroke="darkviolet" points="377,-334.5 377,-370.5 "/>
<text text-anchor="middle" x="406.5" y="-348.8" font-family="Times,serif" font-size="14.00" fill="#800000">杨晓红</text>
<polyline fill="none" stroke="darkviolet" points="436,-334.5 436,-370.5 "/>
<text text-anchor="middle" x="447.5" y="-348.8" font-family="Times,serif" font-size="14.00" fill="#800000">4</text>
</g>
<!-- ty&#45;&gt;yxh -->
<g id="edge9" class="edge">
<title>ty:n&#45;&gt;yxh:n</title>
<path fill="none" stroke="black" d="M198.5,-453C198.5,-357.4 391.35,-462.4 405.66,-381.68"/>
<polygon fill="black" stroke="black" points="406.5,-371.5 410.16,-381.84 406.09,-376.48 405.68,-381.47 405.68,-381.47 405.68,-381.47 406.09,-376.48 401.19,-381.1 406.5,-371.5 406.5,-371.5"/>
</g>
<!-- aqb -->
<g id="node12" class="node">
<title>aqb</title>
<path fill="forestgreen" stroke="darkviolet" d="M674,-306.5C674,-306.5 791,-306.5 791,-306.5 797,-306.5 803,-312.5 803,-318.5 803,-318.5 803,-386.5 803,-386.5 803,-392.5 797,-398.5 791,-398.5 791,-398.5 674,-398.5 674,-398.5 668,-398.5 662,-392.5 662,-386.5 662,-386.5 662,-318.5 662,-318.5 662,-312.5 668,-306.5 674,-306.5"/>
<text text-anchor="middle" x="691.5" y="-348.8" font-family="Times,serif" font-size="14.00" fill="honeydew">安全部</text>
<polyline fill="none" stroke="darkviolet" points="721,-306.5 721,-398.5 "/>
<text text-anchor="middle" x="750.5" y="-383.3" font-family="Times,serif" font-size="14.00" fill="honeydew">李胜男</text>
<polyline fill="none" stroke="darkviolet" points="721,-375.5 780,-375.5 "/>
<text text-anchor="middle" x="750.5" y="-360.3" font-family="Times,serif" font-size="14.00" fill="honeydew">潘青竹</text>
<polyline fill="none" stroke="darkviolet" points="721,-352.5 780,-352.5 "/>
<text text-anchor="middle" x="750.5" y="-337.3" font-family="Times,serif" font-size="14.00" fill="honeydew">田墨兰</text>
<polyline fill="none" stroke="darkviolet" points="721,-329.5 780,-329.5 "/>
<text text-anchor="middle" x="750.5" y="-314.3" font-family="Times,serif" font-size="14.00" fill="honeydew">高凌烟</text>
<polyline fill="none" stroke="darkviolet" points="780,-306.5 780,-398.5 "/>
<text text-anchor="middle" x="791.5" y="-348.8" font-family="Times,serif" font-size="14.00" fill="honeydew">4</text>
</g>
<!-- ty&#45;&gt;aqb -->
<g id="edge13" class="edge">
<title>ty:lv&#45;&gt;aqb:lv</title>
<path fill="none" stroke="black" d="M245.5,-472.5C303.49,-472.5 741.55,-461.48 787.59,-408.28"/>
<polygon fill="black" stroke="black" points="791.5,-399 791.76,-409.96 789.56,-403.61 787.62,-408.22 787.62,-408.22 787.62,-408.22 789.56,-403.61 783.47,-406.47 791.5,-399 791.5,-399"/>
</g>
<!-- xyy -->
<g id="node9" class="node">
<title>xyy</title>
<path fill="#ffaeb9" stroke="darkviolet" d="M384,-215.5C384,-215.5 501,-215.5 501,-215.5 507,-215.5 513,-221.5 513,-227.5 513,-227.5 513,-239.5 513,-239.5 513,-245.5 507,-251.5 501,-251.5 501,-251.5 384,-251.5 384,-251.5 378,-251.5 372,-245.5 372,-239.5 372,-239.5 372,-227.5 372,-227.5 372,-221.5 378,-215.5 384,-215.5"/>
<text text-anchor="middle" x="401.5" y="-229.8" font-family="Times,serif" font-size="14.00" fill="#800000">医疗部</text>
<polyline fill="none" stroke="darkviolet" points="431,-215.5 431,-251.5 "/>
<text text-anchor="middle" x="460.5" y="-229.8" font-family="Times,serif" font-size="14.00" fill="#800000">夏媛媛</text>
<polyline fill="none" stroke="darkviolet" points="490,-215.5 490,-251.5 "/>
<text text-anchor="middle" x="501.5" y="-229.8" font-family="Times,serif" font-size="14.00" fill="#800000">3</text>
</g>
<!-- wq&#45;&gt;xyy -->
<g id="edge15" class="edge">
<title>wq:d&#45;&gt;xyy:d</title>
<path fill="none" stroke="black" d="M506.5,-333.5C506.5,-278.12 414.21,-306.87 402.68,-262"/>
<polygon fill="black" stroke="black" points="401.5,-252 407.14,-261.4 402.09,-256.97 402.67,-261.93 402.67,-261.93 402.67,-261.93 402.09,-256.97 398.2,-262.46 401.5,-252 401.5,-252"/>
</g>
<!-- zc -->
<g id="node11" class="node">
<title>zc</title>
<polygon fill="gold" stroke="darkviolet" points="156.5,-546.5 156.5,-582.5 244.5,-582.5 244.5,-546.5 156.5,-546.5"/>
<text text-anchor="middle" x="166.5" y="-560.8" font-family="Times,serif" font-size="14.00" fill="indigo"> </text>
<polyline fill="none" stroke="darkviolet" points="176.5,-546.5 176.5,-582.5 "/>
<text text-anchor="middle" x="199" y="-560.8" font-family="Times,serif" font-size="14.00" fill="indigo">张诚</text>
<polyline fill="none" stroke="darkviolet" points="221.5,-546.5 221.5,-582.5 "/>
<text text-anchor="middle" x="233" y="-560.8" font-family="Times,serif" font-size="14.00" fill="indigo">6</text>
</g>
<!-- zc&#45;&gt;smy -->
<g id="edge8" class="edge">
<title>zc:n&#45;&gt;smy:n</title>
<path fill="none" stroke="#8b5f65" stroke-dasharray="1,5" d="M198.5,-546C198.5,-498.97 133.89,-530.93 107.5,-492 79.04,-450.02 87.2,-428.57 88.37,-381.59"/>
<polyline fill="none" stroke="#8b5f65" points="88.5,-371.5 88.37,-381.5 "/>
<path fill="none" stroke="#8b5f65" d="M83.44,-376.44C83.77,-369.77 93.27,-369.9 93.44,-376.56"/>
</g>
<!-- zc&#45;&gt;ty -->
<g id="edge7" class="edge">
<title>zc:n&#45;&gt;ty:n</title>
<path fill="none" stroke="red" stroke-width="2" d="M198.5,-546C198.5,-525.75 198.5,-518.31 198.5,-502.07"/>
<polyline fill="none" stroke="red" stroke-width="2" points="198.5,-492 198.5,-502 "/>
<path fill="none" stroke="red" stroke-width="2" d="M193.5,-497C193.75,-490.33 203.25,-490.33 203.5,-497"/>
</g>
<!-- aqb&#45;&gt;jps -->
<g id="edge14" class="edge">
<title>aqb:d&#45;&gt;jps:d</title>
<path fill="none" stroke="black" d="M691.5,-306C691.5,-285.75 691.5,-278.31 691.5,-262.07"/>
<polygon fill="black" stroke="black" points="691.5,-252 696,-262 691.5,-257 691.5,-262 691.5,-262 691.5,-262 691.5,-257 687,-262 691.5,-252 691.5,-252"/>
</g>
<!-- LV -->
<g id="node13" class="node">
<title>LV</title>
<polygon fill="white" stroke="transparent" points="875.5,-673 821.5,-673 821.5,-637 875.5,-637 875.5,-673"/>
<text text-anchor="middle" x="848.5" y="-648.8" font-family="Times,serif" font-size="24.00" fill="#800000">LV</text>
</g>
<!-- 6 -->
<g id="node14" class="node">
<title>6</title>
<polygon fill="white" stroke="transparent" points="875.5,-582.5 821.5,-582.5 821.5,-546.5 875.5,-546.5 875.5,-582.5"/>
<text text-anchor="middle" x="848.5" y="-558.3" font-family="Times,serif" font-size="24.00" fill="#800000">6</text>
</g>
<!-- LV&#45;&gt;6 -->
<!-- 5 -->
<g id="node15" class="node">
<title>5</title>
<polygon fill="white" stroke="transparent" points="875.5,-490.5 821.5,-490.5 821.5,-454.5 875.5,-454.5 875.5,-490.5"/>
<text text-anchor="middle" x="848.5" y="-466.3" font-family="Times,serif" font-size="24.00" fill="#800000">5</text>
</g>
<!-- 6&#45;&gt;5 -->
<g id="edge2" class="edge">
<title>6&#45;&gt;5</title>
<path fill="none" stroke="black" d="M848.5,-546.15C848.5,-531.83 848.5,-511.41 848.5,-495.87"/>
<polygon fill="black" stroke="black" points="843.5,-491.8 853.5,-491.8 853.5,-493.8 843.5,-493.8 843.5,-491.8"/>
<polyline fill="none" stroke="black" points="848.5,-490.8 848.5,-495.8 "/>
</g>
<!-- 4 -->
<g id="node16" class="node">
<title>4</title>
<polygon fill="white" stroke="transparent" points="875.5,-370.5 821.5,-370.5 821.5,-334.5 875.5,-334.5 875.5,-370.5"/>
<text text-anchor="middle" x="848.5" y="-346.3" font-family="Times,serif" font-size="24.00" fill="#800000">4</text>
</g>
<!-- 5&#45;&gt;4 -->
<g id="edge3" class="edge">
<title>5&#45;&gt;4</title>
<path fill="none" stroke="black" d="M848.5,-454.34C848.5,-433.63 848.5,-398.75 848.5,-375.92"/>
<polygon fill="black" stroke="black" points="843.5,-371.68 853.5,-371.68 853.5,-373.68 843.5,-373.68 843.5,-371.68"/>
<polyline fill="none" stroke="black" points="848.5,-370.68 848.5,-375.68 "/>
</g>
<!-- 3 -->
<g id="node17" class="node">
<title>3</title>
<polygon fill="white" stroke="transparent" points="875.5,-251.5 821.5,-251.5 821.5,-215.5 875.5,-215.5 875.5,-251.5"/>
<text text-anchor="middle" x="848.5" y="-227.3" font-family="Times,serif" font-size="24.00" fill="#800000">3</text>
</g>
<!-- 4&#45;&gt;3 -->
<g id="edge4" class="edge">
<title>4&#45;&gt;3</title>
<path fill="none" stroke="black" d="M848.5,-334.49C848.5,-313.95 848.5,-279.36 848.5,-256.73"/>
<polygon fill="black" stroke="black" points="843.5,-252.53 853.5,-252.53 853.5,-254.53 843.5,-254.53 843.5,-252.53"/>
<polyline fill="none" stroke="black" points="848.5,-251.53 848.5,-256.53 "/>
</g>
<!-- 2 -->
<g id="node18" class="node">
<title>2</title>
<polygon fill="white" stroke="transparent" points="875.5,-160.5 821.5,-160.5 821.5,-124.5 875.5,-124.5 875.5,-160.5"/>
<text text-anchor="middle" x="848.5" y="-136.3" font-family="Times,serif" font-size="24.00" fill="#800000">2</text>
</g>
<!-- 3&#45;&gt;2 -->
<g id="edge5" class="edge">
<title>3&#45;&gt;2</title>
<path fill="none" stroke="black" d="M848.5,-215.34C848.5,-201.18 848.5,-180.99 848.5,-165.62"/>
<polygon fill="black" stroke="black" points="843.5,-161.61 853.5,-161.61 853.5,-163.61 843.5,-163.61 843.5,-161.61"/>
<polyline fill="none" stroke="black" points="848.5,-160.61 848.5,-165.61 "/>
</g>
<!-- 1 -->
<g id="node19" class="node">
<title>1</title>
<polygon fill="white" stroke="transparent" points="875.5,-70 821.5,-70 821.5,-34 875.5,-34 875.5,-70"/>
<text text-anchor="middle" x="848.5" y="-45.8" font-family="Times,serif" font-size="24.00" fill="#800000">1</text>
</g>
<!-- 2&#45;&gt;1 -->
<g id="edge6" class="edge">
<title>2&#45;&gt;1</title>
<path fill="none" stroke="black" d="M848.5,-124.44C848.5,-110.48 848.5,-90.63 848.5,-75.4"/>
<polygon fill="black" stroke="black" points="843.5,-71.01 853.5,-71.01 853.5,-73.01 843.5,-73.01 843.5,-71.01"/>
<polyline fill="none" stroke="black" points="848.5,-70.01 848.5,-75.01 "/>
</g>
</g>
</svg>
