<?xml version="1.0" encoding="UTF-8" standalone="no"?>
<!DOCTYPE svg PUBLIC "-//W3C//DTD SVG 1.1//EN"
 "http://www.w3.org/Graphics/SVG/1.1/DTD/svg11.dtd">
<!-- Generated by graphviz version 2.47.1 (20210417.1919)
 -->
<!-- Title: beautyStruck Pages: 1 -->
<svg width="810pt" height="466pt"
 viewBox="0.00 0.00 911.75 524.00" xmlns="http://www.w3.org/2000/svg" xmlns:xlink="http://www.w3.org/1999/xlink">
<g id="graph0" class="graph" transform="scale(0.89 0.89) rotate(0) translate(4 520)">
<title>beautyStruck</title>
<polygon fill="white" stroke="transparent" points="-4,4 -4,-520 907.75,-520 907.75,4 -4,4"/>
<!-- cs -->
<g id="node1" class="node">
<title>cs</title>
<ellipse fill="none" stroke="red" cx="29.25" cy="-91" rx="29.5" ry="18"/>
<text text-anchor="middle" x="29.25" y="-87.3" font-family="Simsun" font-size="14.00">成霜</text>
</g>
<!-- dqy -->
<g id="node2" class="node">
<title>dqy</title>
<ellipse fill="none" stroke="red" cx="95.25" cy="-237" rx="38.19" ry="18"/>
<text text-anchor="middle" x="95.25" y="-233.3" font-family="Simsun" font-size="14.00">黛沁雅</text>
</g>
<!-- hqm -->
<g id="node3" class="node">
<title>hqm</title>
<ellipse fill="none" stroke="red" cx="161.25" cy="-91" rx="38.19" ry="18"/>
<text text-anchor="middle" x="161.25" y="-87.3" font-family="Simsun" font-size="14.00">韩秋茗</text>
</g>
<!-- lsy -->
<g id="node4" class="node">
<title>lsy</title>
<ellipse fill="none" stroke="red" cx="322.25" cy="-18" rx="38.19" ry="18"/>
<text text-anchor="middle" x="322.25" y="-14.3" font-family="Simsun" font-size="14.00">蓝素玥</text>
</g>
<!-- mxy -->
<g id="node5" class="node">
<title>mxy</title>
<ellipse fill="none" stroke="red" cx="227.25" cy="-164" rx="38.19" ry="18"/>
<text text-anchor="middle" x="227.25" y="-160.3" font-family="Simsun" font-size="14.00">慕小雅</text>
</g>
<!-- nyy -->
<g id="node6" class="node">
<title>nyy</title>
<ellipse fill="none" stroke="red" cx="322.25" cy="-164" rx="38.19" ry="18"/>
<text text-anchor="middle" x="322.25" y="-160.3" font-family="Simsun" font-size="14.00">宁雨夷</text>
</g>
<!-- nyy&#45;&#45;lsy -->
<g id="edge7" class="edge">
<title>nyy&#45;&#45;lsy</title>
<path fill="none" stroke="red" d="M322.25,-145.92C322.25,-118.2 322.25,-63.76 322.25,-36.06"/>
</g>
<!-- qbe -->
<g id="node7" class="node">
<title>qbe</title>
<ellipse fill="none" stroke="red" cx="371.25" cy="-237" rx="38.19" ry="18"/>
<text text-anchor="middle" x="371.25" y="-233.3" font-family="Simsun" font-size="14.00">秦蓓儿</text>
</g>
<!-- wls -->
<g id="node8" class="node">
<title>wls</title>
<ellipse fill="none" stroke="red" cx="466.25" cy="-237" rx="38.19" ry="18"/>
<text text-anchor="middle" x="466.25" y="-233.3" font-family="Simsun" font-size="14.00">维丽丝</text>
</g>
<!-- xcy -->
<g id="node9" class="node">
<title>xcy</title>
<ellipse fill="none" stroke="red" cx="486.25" cy="-411" rx="38.19" ry="18"/>
<text text-anchor="middle" x="486.25" y="-407.3" font-family="Simsun" font-size="14.00">许彩月</text>
</g>
<!-- xf -->
<g id="node10" class="node">
<title>xf</title>
<ellipse fill="none" stroke="red" cx="541.25" cy="-91" rx="29.5" ry="18"/>
<text text-anchor="middle" x="541.25" y="-87.3" font-family="Simsun" font-size="14.00">筱芬</text>
</g>
<!-- xq -->
<g id="node11" class="node">
<title>xq</title>
<ellipse fill="none" stroke="red" cx="598.25" cy="-324" rx="29.5" ry="18"/>
<text text-anchor="middle" x="598.25" y="-320.3" font-family="Simsun" font-size="14.00">许芊</text>
</g>
<!-- xx -->
<g id="node12" class="node">
<title>xx</title>
<ellipse fill="none" stroke="red" cx="677.25" cy="-324" rx="29.5" ry="18"/>
<text text-anchor="middle" x="677.25" y="-320.3" font-family="Simsun" font-size="14.00">旬香</text>
</g>
<!-- xy -->
<g id="node13" class="node">
<title>xy</title>
<ellipse fill="none" stroke="red" cx="756.25" cy="-324" rx="29.5" ry="18"/>
<text text-anchor="middle" x="756.25" y="-320.3" font-family="Simsun" font-size="14.00">夕悦</text>
</g>
<!-- zy -->
<g id="node14" class="node">
<title>zy</title>
<ellipse fill="none" stroke="red" cx="486.25" cy="-498" rx="29.5" ry="18"/>
<text text-anchor="middle" x="486.25" y="-494.3" font-family="Simsun" font-size="14.00">周云</text>
</g>
<!-- zy&#45;&#45;cs -->
<g id="edge8" class="edge">
<title>zy&#45;&#45;cs</title>
<path fill="none" stroke="red" d="M456.79,-497.75C394.71,-498.54 246.39,-496.3 128.25,-462 80.91,-448.26 29.25,-461.29 29.25,-412 29.25,-412 29.25,-412 29.25,-163 29.25,-144.63 29.25,-123.59 29.25,-109.22"/>
</g>
<!-- zy&#45;&#45;dqy -->
<g id="edge9" class="edge">
<title>zy&#45;&#45;dqy</title>
<path fill="none" stroke="red" d="M456.91,-497.51C384.02,-498.23 196.99,-496.57 147.25,-462 79.88,-415.18 87.16,-299.19 92.65,-255.25"/>
<text text-anchor="middle" x="117.75" y="-363.8" font-family="Simsun" font-size="14.00">水之躯</text>
</g>
<!-- zy&#45;&#45;hqm -->
<g id="edge10" class="edge">
<title>zy&#45;&#45;hqm</title>
<path fill="none" stroke="red" d="M457.12,-495.6C377.35,-490.99 161.25,-472.87 161.25,-412 161.25,-412 161.25,-412 161.25,-163 161.25,-144.63 161.25,-123.59 161.25,-109.22"/>
</g>
<!-- zy&#45;&#45;mxy -->
<g id="edge11" class="edge">
<title>zy&#45;&#45;mxy</title>
<path fill="none" stroke="red" d="M457.46,-494.09C388.07,-486.27 217.25,-461.96 217.25,-412 217.25,-412 217.25,-412 217.25,-236 217.25,-217.45 220.64,-196.44 223.47,-182.12"/>
<text text-anchor="middle" x="238.75" y="-320.3" font-family="Simsun" font-size="14.00">凤凰眼</text>
</g>
<!-- zy&#45;&#45;nyy -->
<g id="edge12" class="edge">
<title>zy&#45;&#45;nyy</title>
<path fill="none" stroke="red" d="M456.98,-496.75C403.68,-494.57 296.25,-481.56 296.25,-412 296.25,-412 296.25,-412 296.25,-236 296.25,-216.44 305.06,-195.6 312.42,-181.59"/>
<text text-anchor="middle" x="325.25" y="-320.3" font-family="Simsun" font-size="14.00">风之眷顾</text>
</g>
<!-- zy&#45;&#45;qbe -->
<g id="edge13" class="edge">
<title>zy&#45;&#45;qbe</title>
<path fill="none" stroke="red" d="M466.88,-484.42C458.76,-478.4 449.72,-470.62 443.25,-462 393.8,-396.2 377.59,-295.21 372.92,-255.19"/>
</g>
<!-- zy&#45;&#45;wls -->
<g id="edge14" class="edge">
<title>zy&#45;&#45;wls</title>
<path fill="none" stroke="red" d="M472.04,-482.25C460.69,-469.36 445.66,-449.55 439.25,-429 419.8,-366.66 445.65,-288.47 459.07,-254.75"/>
<text text-anchor="middle" x="462.25" y="-363.8" font-family="Simsun" font-size="14.00">凤凰纹章</text>
</g>
<!-- zy&#45;&#45;xcy -->
<g id="edge15" class="edge">
<title>zy&#45;&#45;xcy</title>
<path fill="none" stroke="red" stroke-width="2" d="M486.25,-479.8C486.25,-465.05 486.25,-443.92 486.25,-429.18"/>
<text text-anchor="middle" x="507.75" y="-450.8" font-family="Simsun" font-size="14.00">玲珑心</text>
</g>
<!-- zy&#45;&#45;xf -->
<g id="edge16" class="edge">
<title>zy&#45;&#45;xf</title>
<path fill="none" stroke="red" d="M508.57,-486.1C517.9,-480.31 527.81,-472.25 533.25,-462 570.86,-391.05 541.25,-361.8 541.25,-281.5 541.25,-281.5 541.25,-281.5 541.25,-163 541.25,-144.63 541.25,-123.59 541.25,-109.22"/>
<text text-anchor="middle" x="563.75" y="-276.8" font-family="Simsun" font-size="14.00">女武神</text>
</g>
<!-- zy&#45;&#45;xq -->
<g id="edge17" class="edge">
<title>zy&#45;&#45;xq</title>
<path fill="none" stroke="red" stroke-width="2" d="M513.81,-491.59C531.31,-486.74 553.06,-477.85 566.25,-462 595.3,-427.08 599.03,-370.58 598.9,-342.29"/>
<text text-anchor="middle" x="616.75" y="-407.3" font-family="Simsun" font-size="14.00">苍灵瞳</text>
</g>
<!-- zy&#45;&#45;xx -->
<g id="edge18" class="edge">
<title>zy&#45;&#45;xx</title>
<path fill="none" stroke="red" d="M514.3,-492.73C549.68,-485.81 609.8,-468.69 642.25,-429 663.23,-403.34 671.86,-364.51 675.23,-342.28"/>
<text text-anchor="middle" x="683.75" y="-407.3" font-family="Simsun" font-size="14.00">女舞神</text>
</g>
<!-- zy&#45;&#45;xy -->
<g id="edge19" class="edge">
<title>zy&#45;&#45;xy</title>
<path fill="none" stroke="red" d="M515.72,-496.17C562.81,-493.26 655.2,-480.83 709.25,-429 734.42,-404.86 747.19,-364.76 752.72,-342.05"/>
<text text-anchor="middle" x="763.25" y="-407.3" font-family="Simsun" font-size="14.00">幽灵皇后</text>
</g>
<!-- 美人榜 -->
<g id="node15" class="node">
<title>美人榜</title>
<polygon fill="white" stroke="transparent" points="903.75,-516 814.75,-516 814.75,-480 903.75,-480 903.75,-516"/>
<text text-anchor="middle" x="859.25" y="-491.8" font-family="Simsun" font-size="24.00">美人榜</text>
</g>
<!-- 0 -->
<g id="node16" class="node">
<title>0</title>
<polygon fill="white" stroke="transparent" points="886.25,-429 832.25,-429 832.25,-393 886.25,-393 886.25,-429"/>
<text text-anchor="middle" x="859.25" y="-404.8" font-family="Simsun" font-size="24.00">0</text>
</g>
<!-- 美人榜&#45;&#45;0 -->
<!-- 1 -->
<g id="node17" class="node">
<title>1</title>
<polygon fill="white" stroke="transparent" points="886.25,-342 832.25,-342 832.25,-306 886.25,-306 886.25,-342"/>
<text text-anchor="middle" x="859.25" y="-317.8" font-family="Simsun" font-size="24.00">1</text>
</g>
<!-- 0&#45;&#45;1 -->
<g id="edge2" class="edge">
<title>0&#45;&#45;1</title>
<path fill="none" stroke="black" d="M859.25,-392.8C859.25,-378.05 859.25,-356.92 859.25,-342.18"/>
</g>
<!-- 2 -->
<g id="node18" class="node">
<title>2</title>
<polygon fill="white" stroke="transparent" points="886.25,-255 832.25,-255 832.25,-219 886.25,-219 886.25,-255"/>
<text text-anchor="middle" x="859.25" y="-230.8" font-family="Simsun" font-size="24.00">2</text>
</g>
<!-- 1&#45;&#45;2 -->
<g id="edge3" class="edge">
<title>1&#45;&#45;2</title>
<path fill="none" stroke="black" d="M859.25,-305.8C859.25,-291.05 859.25,-269.92 859.25,-255.18"/>
</g>
<!-- 3 -->
<g id="node19" class="node">
<title>3</title>
<polygon fill="white" stroke="transparent" points="886.25,-182 832.25,-182 832.25,-146 886.25,-146 886.25,-182"/>
<text text-anchor="middle" x="859.25" y="-157.8" font-family="Simsun" font-size="24.00">3</text>
</g>
<!-- 2&#45;&#45;3 -->
<g id="edge4" class="edge">
<title>2&#45;&#45;3</title>
<path fill="none" stroke="black" d="M859.25,-218.81C859.25,-207.65 859.25,-193.16 859.25,-182.03"/>
</g>
<!-- 4 -->
<g id="node20" class="node">
<title>4</title>
<polygon fill="white" stroke="transparent" points="886.25,-109 832.25,-109 832.25,-73 886.25,-73 886.25,-109"/>
<text text-anchor="middle" x="859.25" y="-84.8" font-family="Simsun" font-size="24.00">4</text>
</g>
<!-- 3&#45;&#45;4 -->
<g id="edge5" class="edge">
<title>3&#45;&#45;4</title>
<path fill="none" stroke="black" d="M859.25,-145.81C859.25,-134.65 859.25,-120.16 859.25,-109.03"/>
</g>
<!-- 5 -->
<g id="node21" class="node">
<title>5</title>
<polygon fill="white" stroke="transparent" points="886.25,-36 832.25,-36 832.25,0 886.25,0 886.25,-36"/>
<text text-anchor="middle" x="859.25" y="-11.8" font-family="Simsun" font-size="24.00">5</text>
</g>
<!-- 4&#45;&#45;5 -->
<g id="edge6" class="edge">
<title>4&#45;&#45;5</title>
<path fill="none" stroke="black" d="M859.25,-72.81C859.25,-61.65 859.25,-47.16 859.25,-36.03"/>
</g>
</g>
</svg>
