<svg id="mermaid-1704787997185" width="100%" xmlns="http://www.w3.org/2000/svg" height="450" style="max-width: 784px;" viewBox="0 0 784 450"><style>#mermaid-1704787997185{font-family:"trebuchet ms",verdana,arial,sans-serif;font-size:16px;fill:#333;}#mermaid-1704787997185 .error-icon{fill:#552222;}#mermaid-1704787997185 .error-text{fill:#552222;stroke:#552222;}#mermaid-1704787997185 .edge-thickness-normal{stroke-width:2px;}#mermaid-1704787997185 .edge-thickness-thick{stroke-width:3.5px;}#mermaid-1704787997185 .edge-pattern-solid{stroke-dasharray:0;}#mermaid-1704787997185 .edge-pattern-dashed{stroke-dasharray:3;}#mermaid-1704787997185 .edge-pattern-dotted{stroke-dasharray:2;}#mermaid-1704787997185 .marker{fill:#333333;stroke:#333333;}#mermaid-1704787997185 .marker.cross{stroke:#333333;}#mermaid-1704787997185 svg{font-family:"trebuchet ms",verdana,arial,sans-serif;font-size:16px;}#mermaid-1704787997185 .pieCircle{stroke:black;stroke-width :2px;opacity :0.7;}#mermaid-1704787997185 .pieTitleText{text-anchor:middle;font-size:25px;fill:black;font-family:"trebuchet ms",verdana,arial,sans-serif;}#mermaid-1704787997185 .slice{font-family:"trebuchet ms",verdana,arial,sans-serif;fill:#333;font-size:17px;}#mermaid-1704787997185 .legend text{fill:black;font-family:"trebuchet ms",verdana,arial,sans-serif;font-size:17px;}#mermaid-1704787997185:root{--mermaid-font-family:"trebuchet ms",verdana,arial,sans-serif;}</style><g></g><g transform="translate(392,225)"><path d="M1.1327982892113017e-14,-185A185,185,0,1,1,-74.56820660177736,169.30617993503557L0,0Z" fill="#ECECFF" class="pieCircle"></path><path d="M-74.56820660177736,169.30617993503557A185,185,0,0,1,-183.00052959443286,27.125747329006508L0,0Z" fill="#ffffde" class="pieCircle"></path><path d="M-183.00052959443286,27.125747329006508A185,185,0,0,1,-140.07723450986995,-120.84439735489144L0,0Z" fill="hsl(80, 100%, 56.2745098039%)" class="pieCircle"></path><path d="M-140.07723450986995,-120.84439735489144A185,185,0,0,1,-46.87766529726219,-178.96224321425416L0,0Z" fill="hsl(240, 100%, 86.2745098039%)" class="pieCircle"></path><path d="M-46.87766529726219,-178.96224321425416A185,185,0,0,1,-3.398394867633905e-14,-185L0,0Z" fill="hsl(60, 100%, 63.5294117647%)" class="pieCircle"></path><text transform="translate(90.51701724536495,19.05044852496398)" class="slice" style="text-anchor: middle;">57%</text><text transform="translate(-73.55139754015151,56.0931539485042)" class="slice" style="text-anchor: middle;">16%</text><text transform="translate(-88.83777538877015,-25.770131237043064)" class="slice" style="text-anchor: middle;">14%</text><text transform="translate(-48.94500649276403,-78.48972123420548)" class="slice" style="text-anchor: middle;">10%</text><text transform="translate(-11.81622298665583,-91.7421760932758)" class="slice" style="text-anchor: middle;">4%</text><text x="0" y="-200" class="pieTitleText">曲阜一行花销</text><g class="legend" transform="translate(216,-55)"><rect width="18" height="18" style="fill: rgb(236, 236, 255); stroke: rgb(236, 236, 255);"></rect><text x="22" y="14">Hotel</text></g><g class="legend" transform="translate(216,-33)"><rect width="18" height="18" style="fill: rgb(255, 255, 222); stroke: rgb(255, 255, 222);"></rect><text x="22" y="14">Snacks</text></g><g class="legend" transform="translate(216,-11)"><rect width="18" height="18" style="fill: rgb(181, 255, 32); stroke: rgb(181, 255, 32);"></rect><text x="22" y="14">Catering</text></g><g class="legend" transform="translate(216,11)"><rect width="18" height="18" style="fill: rgb(185, 185, 255); stroke: rgb(185, 185, 255);"></rect><text x="22" y="14">Transpotation</text></g><g class="legend" transform="translate(216,33)"><rect width="18" height="18" style="fill: rgb(255, 255, 69); stroke: rgb(255, 255, 69);"></rect><text x="22" y="14">Others</text></g></g></svg>